<svg width="177" height="29" viewBox="0 0 177 29" fill="none" xmlns="http://www.w3.org/2000/svg">
<path d="M5.35284 15.17C5.74017 15.17 6.08084 15.1187 6.37484 15.016C6.67351 14.9133 6.92317 14.771 7.12384 14.589C7.32917 14.4023 7.48317 14.1807 7.58584 13.924C7.68851 13.6673 7.73984 13.385 7.73984 13.077C7.73984 12.4377 7.54151 11.9383 7.14484 11.579C6.75284 11.2197 6.15551 11.04 5.35284 11.04H3.74284V15.17H5.35284ZM5.35284 9.96901C5.98751 9.96901 6.53817 10.0437 7.00484 10.193C7.47617 10.3377 7.86584 10.5453 8.17384 10.816C8.48184 11.0867 8.71051 11.4133 8.85984 11.796C9.01384 12.1787 9.09084 12.6057 9.09084 13.077C9.09084 13.5437 9.00917 13.9707 8.84584 14.358C8.68251 14.7453 8.44217 15.079 8.12484 15.359C7.81217 15.639 7.42251 15.8583 6.95584 16.017C6.49384 16.171 5.95951 16.248 5.35284 16.248H3.74284V20H2.39184V9.96901H5.35284ZM13.1259 12.797C13.6439 12.797 14.1106 12.8833 14.5259 13.056C14.9412 13.2287 15.2959 13.4737 15.5899 13.791C15.8839 14.1083 16.1079 14.4933 16.2619 14.946C16.4206 15.394 16.4999 15.8957 16.4999 16.451C16.4999 17.011 16.4206 17.515 16.2619 17.963C16.1079 18.411 15.8839 18.7937 15.5899 19.111C15.2959 19.4283 14.9412 19.6733 14.5259 19.846C14.1106 20.014 13.6439 20.098 13.1259 20.098C12.6032 20.098 12.1319 20.014 11.7119 19.846C11.2966 19.6733 10.9419 19.4283 10.6479 19.111C10.3539 18.7937 10.1276 18.411 9.9689 17.963C9.8149 17.515 9.7379 17.011 9.7379 16.451C9.7379 15.8957 9.8149 15.394 9.9689 14.946C10.1276 14.4933 10.3539 14.1083 10.6479 13.791C10.9419 13.4737 11.2966 13.2287 11.7119 13.056C12.1319 12.8833 12.6032 12.797 13.1259 12.797ZM13.1259 19.125C13.8259 19.125 14.3486 18.8917 14.6939 18.425C15.0392 17.9537 15.2119 17.298 15.2119 16.458C15.2119 15.6133 15.0392 14.9553 14.6939 14.484C14.3486 14.0127 13.8259 13.777 13.1259 13.777C12.7712 13.777 12.4609 13.8377 12.1949 13.959C11.9336 14.0803 11.7142 14.2553 11.5369 14.484C11.3642 14.7127 11.2336 14.995 11.1449 15.331C11.0609 15.6623 11.0189 16.038 11.0189 16.458C11.0189 17.298 11.1916 17.9537 11.5369 18.425C11.8869 18.8917 12.4166 19.125 13.1259 19.125ZM27.7499 12.909L25.4539 20H24.4669C24.3456 20 24.2616 19.9207 24.2149 19.762L22.6469 14.953C22.6096 14.8457 22.5792 14.7383 22.5559 14.631C22.5326 14.519 22.5092 14.4093 22.4859 14.302C22.4626 14.4093 22.4392 14.519 22.4159 14.631C22.3926 14.7383 22.3622 14.848 22.3249 14.96L20.7289 19.762C20.6869 19.9207 20.5936 20 20.4489 20H19.5109L17.2149 12.909H18.1949C18.2929 12.909 18.3746 12.9347 18.4399 12.986C18.5099 13.0373 18.5566 13.098 18.5799 13.168L19.9379 17.732C20.0172 18.068 20.0802 18.3853 20.1269 18.684C20.1689 18.53 20.2109 18.3737 20.2529 18.215C20.2996 18.0563 20.3486 17.8953 20.3999 17.732L21.8979 13.14C21.9212 13.07 21.9609 13.0117 22.0169 12.965C22.0776 12.9183 22.1499 12.895 22.2339 12.895H22.7799C22.8732 12.895 22.9502 12.9183 23.0109 12.965C23.0716 13.0117 23.1136 13.07 23.1369 13.14L24.5999 17.732C24.6512 17.8953 24.6979 18.0563 24.7399 18.215C24.7819 18.3737 24.8216 18.53 24.8589 18.684C24.8822 18.53 24.9102 18.376 24.9429 18.222C24.9802 18.0633 25.0199 17.9 25.0619 17.732L26.4479 13.168C26.4712 13.0933 26.5156 13.0327 26.5809 12.986C26.6462 12.9347 26.7232 12.909 26.8119 12.909H27.7499ZM33.6134 15.681C33.6134 15.3917 33.5714 15.128 33.4874 14.89C33.408 14.6473 33.289 14.4397 33.1304 14.267C32.9764 14.0897 32.7874 13.9543 32.5634 13.861C32.3394 13.763 32.085 13.714 31.8004 13.714C31.203 13.714 30.7294 13.889 30.3794 14.239C30.034 14.5843 29.8194 15.065 29.7354 15.681H33.6134ZM34.6214 19.006C34.4674 19.1927 34.283 19.356 34.0684 19.496C33.8537 19.6313 33.6227 19.7433 33.3754 19.832C33.1327 19.9207 32.8807 19.986 32.6194 20.028C32.358 20.0747 32.099 20.098 31.8424 20.098C31.3524 20.098 30.8997 20.0163 30.4844 19.853C30.0737 19.685 29.7167 19.4423 29.4134 19.125C29.1147 18.803 28.8814 18.4063 28.7134 17.935C28.5454 17.4637 28.4614 16.9223 28.4614 16.311C28.4614 15.8163 28.536 15.3543 28.6854 14.925C28.8394 14.4957 29.0587 14.1247 29.3434 13.812C29.628 13.4947 29.9757 13.2473 30.3864 13.07C30.797 12.888 31.259 12.797 31.7724 12.797C32.197 12.797 32.589 12.8693 32.9484 13.014C33.3124 13.154 33.625 13.3593 33.8864 13.63C34.1524 13.896 34.36 14.2273 34.5094 14.624C34.6587 15.016 34.7334 15.464 34.7334 15.968C34.7334 16.164 34.7124 16.2947 34.6704 16.36C34.6284 16.4253 34.549 16.458 34.4324 16.458H29.6934C29.7074 16.906 29.768 17.2957 29.8754 17.627C29.9874 17.9583 30.1414 18.236 30.3374 18.46C30.5334 18.6793 30.7667 18.845 31.0374 18.957C31.308 19.0643 31.6114 19.118 31.9474 19.118C32.26 19.118 32.5284 19.083 32.7524 19.013C32.981 18.9383 33.177 18.859 33.3404 18.775C33.5037 18.691 33.639 18.614 33.7464 18.544C33.8584 18.4693 33.954 18.432 34.0334 18.432C34.136 18.432 34.2154 18.4717 34.2714 18.551L34.6214 19.006ZM37.4469 14.33C37.6709 13.8447 37.9462 13.4667 38.2729 13.196C38.5995 12.9207 38.9985 12.783 39.4699 12.783C39.6192 12.783 39.7615 12.7993 39.8969 12.832C40.0369 12.8647 40.1605 12.916 40.2679 12.986L40.1769 13.917C40.1489 14.0337 40.0789 14.092 39.9669 14.092C39.9015 14.092 39.8059 14.078 39.6799 14.05C39.5539 14.022 39.4115 14.008 39.2529 14.008C39.0289 14.008 38.8282 14.0407 38.6509 14.106C38.4782 14.1713 38.3219 14.2693 38.1819 14.4C38.0465 14.526 37.9229 14.6847 37.8109 14.876C37.7035 15.0627 37.6055 15.2773 37.5169 15.52V20H36.2639V12.909H36.9779C37.1132 12.909 37.2065 12.9347 37.2579 12.986C37.3092 13.0373 37.3442 13.126 37.3629 13.252L37.4469 14.33ZM45.8224 15.681C45.8224 15.3917 45.7804 15.128 45.6964 14.89C45.617 14.6473 45.498 14.4397 45.3394 14.267C45.1854 14.0897 44.9964 13.9543 44.7724 13.861C44.5484 13.763 44.294 13.714 44.0094 13.714C43.412 13.714 42.9384 13.889 42.5884 14.239C42.243 14.5843 42.0284 15.065 41.9444 15.681H45.8224ZM46.8304 19.006C46.6764 19.1927 46.492 19.356 46.2774 19.496C46.0627 19.6313 45.8317 19.7433 45.5844 19.832C45.3417 19.9207 45.0897 19.986 44.8284 20.028C44.567 20.0747 44.308 20.098 44.0514 20.098C43.5614 20.098 43.1087 20.0163 42.6934 19.853C42.2827 19.685 41.9257 19.4423 41.6224 19.125C41.3237 18.803 41.0904 18.4063 40.9224 17.935C40.7544 17.4637 40.6704 16.9223 40.6704 16.311C40.6704 15.8163 40.745 15.3543 40.8944 14.925C41.0484 14.4957 41.2677 14.1247 41.5524 13.812C41.837 13.4947 42.1847 13.2473 42.5954 13.07C43.006 12.888 43.468 12.797 43.9814 12.797C44.406 12.797 44.798 12.8693 45.1574 13.014C45.5214 13.154 45.834 13.3593 46.0954 13.63C46.3614 13.896 46.569 14.2273 46.7184 14.624C46.8677 15.016 46.9424 15.464 46.9424 15.968C46.9424 16.164 46.9214 16.2947 46.8794 16.36C46.8374 16.4253 46.758 16.458 46.6414 16.458H41.9024C41.9164 16.906 41.977 17.2957 42.0844 17.627C42.1964 17.9583 42.3504 18.236 42.5464 18.46C42.7424 18.6793 42.9757 18.845 43.2464 18.957C43.517 19.0643 43.8204 19.118 44.1564 19.118C44.469 19.118 44.7374 19.083 44.9614 19.013C45.19 18.9383 45.386 18.859 45.5494 18.775C45.7127 18.691 45.848 18.614 45.9554 18.544C46.0674 18.4693 46.163 18.432 46.2424 18.432C46.345 18.432 46.4244 18.4717 46.4804 18.551L46.8304 19.006ZM53.0928 14.596C52.8595 14.2833 52.6075 14.0663 52.3368 13.945C52.0662 13.819 51.7628 13.756 51.4268 13.756C50.7688 13.756 50.2625 13.9917 49.9078 14.463C49.5532 14.9343 49.3758 15.6063 49.3758 16.479C49.3758 16.941 49.4155 17.3377 49.4948 17.669C49.5742 17.9957 49.6908 18.2663 49.8448 18.481C49.9988 18.691 50.1878 18.845 50.4118 18.943C50.6358 19.041 50.8902 19.09 51.1748 19.09C51.5855 19.09 51.9425 18.9967 52.2458 18.81C52.5538 18.6233 52.8362 18.3597 53.0928 18.019V14.596ZM54.3388 9.68901V20H53.5968C53.4195 20 53.3075 19.9137 53.2608 19.741L53.1488 18.88C52.8455 19.244 52.5002 19.538 52.1128 19.762C51.7255 19.986 51.2775 20.098 50.7688 20.098C50.3628 20.098 49.9942 20.021 49.6628 19.867C49.3315 19.7083 49.0492 19.4773 48.8158 19.174C48.5825 18.8707 48.4028 18.4927 48.2768 18.04C48.1508 17.5873 48.0878 17.067 48.0878 16.479C48.0878 15.9563 48.1578 15.471 48.2978 15.023C48.4378 14.5703 48.6385 14.1783 48.8998 13.847C49.1612 13.5157 49.4808 13.2567 49.8588 13.07C50.2415 12.8787 50.6708 12.783 51.1468 12.783C51.5808 12.783 51.9518 12.8577 52.2598 13.007C52.5725 13.1517 52.8502 13.3547 53.0928 13.616V9.68901H54.3388ZM61.1419 18.292C61.3705 18.6 61.6202 18.817 61.8909 18.943C62.1662 19.069 62.4672 19.132 62.7939 19.132C63.4612 19.132 63.9722 18.8963 64.3269 18.425C64.6815 17.9537 64.8589 17.2513 64.8589 16.318C64.8589 15.45 64.7002 14.813 64.3829 14.407C64.0702 13.9963 63.6222 13.791 63.0389 13.791C62.6329 13.791 62.2782 13.8843 61.9749 14.071C61.6762 14.2577 61.3985 14.5213 61.1419 14.862V18.292ZM61.1419 13.931C61.4405 13.5857 61.7765 13.3103 62.1499 13.105C62.5279 12.8997 62.9619 12.797 63.4519 12.797C63.8672 12.797 64.2405 12.8763 64.5719 13.035C64.9079 13.1937 65.1925 13.4247 65.4259 13.728C65.6592 14.0267 65.8365 14.3907 65.9579 14.82C66.0839 15.2493 66.1469 15.7323 66.1469 16.269C66.1469 16.843 66.0769 17.3657 65.9369 17.837C65.7969 18.3083 65.5939 18.712 65.3279 19.048C65.0665 19.3793 64.7469 19.6383 64.3689 19.825C63.9909 20.007 63.5662 20.098 63.0949 20.098C62.6282 20.098 62.2339 20.0117 61.9119 19.839C61.5945 19.6617 61.3169 19.412 61.0789 19.09L61.0159 19.734C60.9785 19.9113 60.8712 20 60.6939 20H59.8889V9.68901H61.1419V13.931ZM73.6631 12.909L69.7081 22.093C69.6661 22.1863 69.6124 22.261 69.5471 22.317C69.4864 22.373 69.3908 22.401 69.2601 22.401H68.3361L69.6311 19.587L66.7051 12.909H67.7831C67.8904 12.909 67.9744 12.937 68.0351 12.993C68.1004 13.0443 68.1448 13.1027 68.1681 13.168L70.0651 17.634C70.1398 17.83 70.2028 18.0353 70.2541 18.25C70.3194 18.0307 70.3894 17.823 70.4641 17.627L72.3051 13.168C72.3331 13.0933 72.3798 13.0327 72.4451 12.986C72.5151 12.9347 72.5921 12.909 72.6761 12.909H73.6631Z" fill="white"/>
<path fill-rule="evenodd" clip-rule="evenodd" d="M96.7209 21.165C96.674 21.2343 96.627 21.3015 96.5797 21.3662C97.2842 21.7441 98.1292 21.9834 98.9294 22.1272C99.7295 22.2711 100.47 22.3168 100.953 22.3152C104.512 14.3185 100.435 8.59518 97.8939 6.67043C96.207 6.87267 94.962 7.29522 93.6204 8.2583C94.6047 8.99513 95.5384 9.9047 96.3086 10.9395C97.3864 12.3877 98.1509 14.0905 98.2751 15.9155C98.3906 17.6123 97.9514 19.3992 96.7209 21.165ZM92.9467 15.3706C92.7351 13.8955 91.6263 12.668 90.1593 11.7948C87.7292 15.5319 88.7808 19.0882 90.023 20.9318C90.0741 21.005 90.1265 21.0784 90.1805 21.1516C91.1913 20.3902 92.9097 18.4733 92.9097 15.9229C92.9097 15.735 92.9223 15.5509 92.9467 15.3706Z" fill="white"/>
<path fill-rule="evenodd" clip-rule="evenodd" d="M85.506 10.2735L85.6947 9.95177C85.7663 9.84256 85.8459 9.7241 85.9324 9.59868L85.9329 9.59795L85.9334 9.59722C86.0272 9.45909 86.1229 9.32414 86.2202 9.19236L86.2208 9.19165L86.2213 9.19093C86.8538 8.32097 87.7049 7.29398 88.5167 6.67211C89.5397 6.64019 90.8559 7.05836 92.1883 7.84086C93.5463 8.63841 94.896 9.80001 95.9343 11.1949C96.9725 12.5899 97.6925 14.2087 97.8093 15.9232C97.9218 17.5762 97.475 19.3348 96.1833 21.0894C95.1726 20.328 93.4543 18.411 93.4543 15.8607C93.4543 13.8439 91.9972 12.2642 90.2032 11.2538L90.0153 11.1479L89.8941 11.3262C87.0777 15.47 88.3794 19.4541 89.7842 21.3805C89.0797 21.7583 88.2347 21.9976 87.4345 22.1415C86.6344 22.2853 85.894 22.331 85.4106 22.3295C83.0703 17.082 83.8553 13.0888 85.506 10.2735Z" fill="white"/>
<path d="M108.501 10.1682C108.622 10.1682 108.748 10.2026 108.878 10.2714C109.017 10.3315 109.121 10.4132 109.19 10.5163L112.35 15.338L111.699 15.3122L114.937 10.5163C115.102 10.2842 115.314 10.1682 115.574 10.1682C115.782 10.1682 115.969 10.2413 116.133 10.3874C116.298 10.5335 116.38 10.7226 116.38 10.9546V18.4192C116.38 18.6427 116.307 18.8317 116.159 18.9865C116.012 19.1326 115.817 19.2056 115.574 19.2056C115.332 19.2056 115.132 19.1326 114.976 18.9865C114.829 18.8317 114.755 18.6427 114.755 18.4192V12.347L115.262 12.463L112.61 16.4725C112.532 16.567 112.432 16.6487 112.311 16.7174C112.198 16.7862 112.081 16.8163 111.96 16.8077C111.847 16.8163 111.73 16.7862 111.608 16.7174C111.496 16.6487 111.4 16.567 111.322 16.4725L108.839 12.579L109.177 11.8958V18.4192C109.177 18.6427 109.108 18.8317 108.969 18.9865C108.83 19.1326 108.648 19.2056 108.423 19.2056C108.206 19.2056 108.028 19.1326 107.89 18.9865C107.751 18.8317 107.682 18.6427 107.682 18.4192V10.9546C107.682 10.7398 107.76 10.555 107.916 10.4003C108.08 10.2456 108.275 10.1682 108.501 10.1682ZM123.9 12.1794C124.126 12.1794 124.312 12.2524 124.46 12.3986C124.607 12.5447 124.681 12.7338 124.681 12.9658V18.4192C124.681 18.6427 124.607 18.8317 124.46 18.9865C124.312 19.1326 124.126 19.2056 123.9 19.2056C123.675 19.2056 123.489 19.1326 123.341 18.9865C123.194 18.8317 123.12 18.6427 123.12 18.4192V17.7875L123.406 17.9035C123.406 18.0152 123.346 18.1528 123.224 18.3161C123.103 18.4708 122.938 18.6255 122.73 18.7802C122.522 18.9349 122.275 19.0681 121.989 19.1798C121.712 19.283 121.408 19.3345 121.079 19.3345C120.481 19.3345 119.939 19.1842 119.453 18.8833C118.968 18.5739 118.582 18.1528 118.296 17.6199C118.019 17.0784 117.88 16.4596 117.88 15.7634C117.88 15.0586 118.019 14.4398 118.296 13.9069C118.582 13.3655 118.964 12.9443 119.44 12.6435C119.917 12.3341 120.446 12.1794 121.027 12.1794C121.4 12.1794 121.742 12.2353 122.054 12.347C122.366 12.4587 122.635 12.6005 122.86 12.7724C123.094 12.9443 123.272 13.1205 123.393 13.301C123.523 13.4729 123.588 13.619 123.588 13.7393L123.12 13.9069V12.9658C123.12 12.7423 123.194 12.5576 123.341 12.4115C123.489 12.2567 123.675 12.1794 123.9 12.1794ZM121.274 17.9164C121.655 17.9164 121.989 17.8219 122.275 17.6328C122.561 17.4437 122.782 17.1858 122.938 16.8592C123.103 16.5326 123.185 16.1674 123.185 15.7634C123.185 15.3509 123.103 14.9813 122.938 14.6547C122.782 14.3281 122.561 14.0702 122.275 13.8812C121.989 13.6921 121.655 13.5975 121.274 13.5975C120.901 13.5975 120.572 13.6921 120.286 13.8812C120 14.0702 119.774 14.3281 119.61 14.6547C119.453 14.9813 119.375 15.3509 119.375 15.7634C119.375 16.1674 119.453 16.5326 119.61 16.8592C119.774 17.1858 120 17.4437 120.286 17.6328C120.572 17.8219 120.901 17.9164 121.274 17.9164ZM130.089 12.1794C130.73 12.1794 131.216 12.3126 131.545 12.579C131.883 12.8455 132.113 13.2022 132.234 13.6491C132.364 14.0874 132.429 14.5773 132.429 15.1188V18.4192C132.429 18.6427 132.356 18.8317 132.208 18.9865C132.061 19.1326 131.875 19.2056 131.649 19.2056C131.424 19.2056 131.237 19.1326 131.09 18.9865C130.943 18.8317 130.869 18.6427 130.869 18.4192V15.1188C130.869 14.8352 130.83 14.5816 130.752 14.3582C130.683 14.1261 130.553 13.9413 130.362 13.8038C130.171 13.6663 129.898 13.5975 129.543 13.5975C129.196 13.5975 128.901 13.6663 128.658 13.8038C128.424 13.9413 128.242 14.1261 128.112 14.3582C127.991 14.5816 127.93 14.8352 127.93 15.1188V18.4192C127.93 18.6427 127.857 18.8317 127.709 18.9865C127.562 19.1326 127.376 19.2056 127.15 19.2056C126.925 19.2056 126.738 19.1326 126.591 18.9865C126.444 18.8317 126.37 18.6427 126.37 18.4192V13.0947C126.37 12.8713 126.444 12.6865 126.591 12.5404C126.738 12.3857 126.925 12.3083 127.15 12.3083C127.376 12.3083 127.562 12.3857 127.709 12.5404C127.857 12.6865 127.93 12.8713 127.93 13.0947V13.6491L127.735 13.6104C127.813 13.4643 127.926 13.3096 128.073 13.1463C128.221 12.9744 128.394 12.8154 128.593 12.6693C128.793 12.5232 129.018 12.4071 129.27 12.3212C129.521 12.2267 129.794 12.1794 130.089 12.1794ZM139.811 9.66542C140.036 9.66542 140.223 9.73848 140.37 9.88459C140.517 10.0307 140.591 10.2198 140.591 10.4518V18.4192C140.591 18.6427 140.517 18.8317 140.37 18.9865C140.223 19.1326 140.036 19.2056 139.811 19.2056C139.586 19.2056 139.399 19.1326 139.252 18.9865C139.105 18.8317 139.031 18.6427 139.031 18.4192V17.7875L139.317 17.9035C139.317 18.0152 139.256 18.1528 139.135 18.3161C139.013 18.4708 138.849 18.6255 138.641 18.7802C138.433 18.9349 138.186 19.0681 137.9 19.1798C137.622 19.283 137.319 19.3345 136.989 19.3345C136.391 19.3345 135.849 19.1842 135.364 18.8833C134.879 18.5739 134.493 18.1528 134.207 17.6199C133.929 17.0784 133.791 16.4596 133.791 15.7634C133.791 15.0586 133.929 14.4398 134.207 13.9069C134.493 13.3655 134.874 12.9443 135.351 12.6435C135.828 12.3341 136.357 12.1794 136.937 12.1794C137.31 12.1794 137.653 12.2353 137.965 12.347C138.277 12.4587 138.545 12.6005 138.771 12.7724C139.005 12.9443 139.183 13.1205 139.304 13.301C139.434 13.4729 139.499 13.619 139.499 13.7393L139.031 13.9069V10.4518C139.031 10.2284 139.105 10.0436 139.252 9.89748C139.399 9.74277 139.586 9.66542 139.811 9.66542ZM137.184 17.9164C137.566 17.9164 137.9 17.8219 138.186 17.6328C138.472 17.4437 138.693 17.1858 138.849 16.8592C139.013 16.5326 139.096 16.1674 139.096 15.7634C139.096 15.3509 139.013 14.9813 138.849 14.6547C138.693 14.3281 138.472 14.0702 138.186 13.8812C137.9 13.6921 137.566 13.5975 137.184 13.5975C136.812 13.5975 136.482 13.6921 136.196 13.8812C135.91 14.0702 135.685 14.3281 135.52 14.6547C135.364 14.9813 135.286 15.3509 135.286 15.7634C135.286 16.1674 135.364 16.5326 135.52 16.8592C135.685 17.1858 135.91 17.4437 136.196 17.6328C136.482 17.8219 136.812 17.9164 137.184 17.9164ZM147.976 12.1794C148.201 12.1794 148.388 12.2524 148.535 12.3986C148.682 12.5447 148.756 12.7338 148.756 12.9658V18.4192C148.756 18.6427 148.682 18.8317 148.535 18.9865C148.388 19.1326 148.201 19.2056 147.976 19.2056C147.75 19.2056 147.564 19.1326 147.417 18.9865C147.269 18.8317 147.196 18.6427 147.196 18.4192V17.7875L147.482 17.9035C147.482 18.0152 147.421 18.1528 147.3 18.3161C147.178 18.4708 147.014 18.6255 146.806 18.7802C146.598 18.9349 146.35 19.0681 146.064 19.1798C145.787 19.283 145.484 19.3345 145.154 19.3345C144.556 19.3345 144.014 19.1842 143.529 18.8833C143.043 18.5739 142.658 18.1528 142.372 17.6199C142.094 17.0784 141.956 16.4596 141.956 15.7634C141.956 15.0586 142.094 14.4398 142.372 13.9069C142.658 13.3655 143.039 12.9443 143.516 12.6435C143.993 12.3341 144.521 12.1794 145.102 12.1794C145.475 12.1794 145.817 12.2353 146.129 12.347C146.441 12.4587 146.71 12.6005 146.936 12.7724C147.17 12.9443 147.347 13.1205 147.469 13.301C147.599 13.4729 147.664 13.619 147.664 13.7393L147.196 13.9069V12.9658C147.196 12.7423 147.269 12.5576 147.417 12.4115C147.564 12.2567 147.75 12.1794 147.976 12.1794ZM145.349 17.9164C145.731 17.9164 146.064 17.8219 146.35 17.6328C146.637 17.4437 146.858 17.1858 147.014 16.8592C147.178 16.5326 147.261 16.1674 147.261 15.7634C147.261 15.3509 147.178 14.9813 147.014 14.6547C146.858 14.3281 146.637 14.0702 146.35 13.8812C146.064 13.6921 145.731 13.5975 145.349 13.5975C144.976 13.5975 144.647 13.6921 144.361 13.8812C144.075 14.0702 143.85 14.3281 143.685 14.6547C143.529 14.9813 143.451 15.3509 143.451 15.7634C143.451 16.1674 143.529 16.5326 143.685 16.8592C143.85 17.1858 144.075 17.4437 144.361 17.6328C144.647 17.8219 144.976 17.9164 145.349 17.9164ZM150.523 12.4372H153.605C153.813 12.4372 153.987 12.506 154.125 12.6435C154.264 12.781 154.333 12.9529 154.333 13.1592C154.333 13.3569 154.264 13.5245 154.125 13.662C153.987 13.7909 153.813 13.8554 153.605 13.8554H150.523C150.315 13.8554 150.142 13.7866 150.003 13.6491C149.865 13.5116 149.795 13.3397 149.795 13.1334C149.795 12.9357 149.865 12.7724 150.003 12.6435C150.142 12.506 150.315 12.4372 150.523 12.4372ZM151.915 10.8257C152.14 10.8257 152.322 10.9031 152.461 11.0578C152.608 11.2039 152.682 11.3887 152.682 11.6121V17.3491C152.682 17.4695 152.704 17.5683 152.747 17.6457C152.799 17.723 152.864 17.7789 152.942 17.8133C153.029 17.8476 153.12 17.8648 153.215 17.8648C153.319 17.8648 153.414 17.8476 153.501 17.8133C153.588 17.7703 153.687 17.7488 153.8 17.7488C153.922 17.7488 154.03 17.8047 154.125 17.9164C154.229 18.0281 154.281 18.1828 154.281 18.3805C154.281 18.6211 154.147 18.8189 153.878 18.9736C153.618 19.1283 153.336 19.2056 153.033 19.2056C152.851 19.2056 152.647 19.1927 152.422 19.1669C152.205 19.1326 151.997 19.0595 151.798 18.9478C151.607 18.8274 151.447 18.6469 151.317 18.4063C151.187 18.1657 151.122 17.8347 151.122 17.4136V11.6121C151.122 11.3887 151.195 11.2039 151.343 11.0578C151.499 10.9031 151.689 10.8257 151.915 10.8257ZM158.979 19.3345C158.242 19.3345 157.601 19.1842 157.055 18.8833C156.517 18.5739 156.101 18.1571 155.806 17.6328C155.52 17.1085 155.377 16.5155 155.377 15.8537C155.377 15.0801 155.533 14.4226 155.845 13.8812C156.166 13.3311 156.582 12.9099 157.094 12.6177C157.605 12.3255 158.147 12.1794 158.719 12.1794C159.161 12.1794 159.577 12.2696 159.967 12.4501C160.366 12.6306 160.717 12.8799 161.021 13.1979C161.324 13.5073 161.562 13.8683 161.736 14.2808C161.918 14.6934 162.009 15.1317 162.009 15.5958C162 15.8021 161.918 15.9697 161.762 16.0986C161.606 16.2275 161.424 16.292 161.216 16.292H156.249L155.858 15.0028H160.63L160.344 15.2606V14.9125C160.327 14.6633 160.236 14.4398 160.071 14.2421C159.915 14.0445 159.716 13.8897 159.473 13.778C159.239 13.6577 158.988 13.5975 158.719 13.5975C158.459 13.5975 158.216 13.6319 157.991 13.7007C157.765 13.7694 157.57 13.8855 157.406 14.0488C157.241 14.2121 157.111 14.4312 157.016 14.7063C156.92 14.9813 156.873 15.3294 156.873 15.7505C156.873 16.2146 156.968 16.61 157.159 16.9366C157.358 17.2546 157.609 17.4996 157.913 17.6715C158.225 17.8347 158.554 17.9164 158.901 17.9164C159.222 17.9164 159.477 17.8906 159.668 17.839C159.859 17.7875 160.011 17.7273 160.123 17.6586C160.245 17.5812 160.353 17.5167 160.448 17.4652C160.604 17.3878 160.752 17.3491 160.891 17.3491C161.081 17.3491 161.237 17.4136 161.359 17.5425C161.489 17.6715 161.554 17.8219 161.554 17.9938C161.554 18.2258 161.432 18.4364 161.19 18.6255C160.964 18.8145 160.648 18.9821 160.24 19.1283C159.833 19.2658 159.412 19.3345 158.979 19.3345ZM166.467 12.1794C166.961 12.1794 167.39 12.231 167.754 12.3341C168.127 12.4372 168.413 12.5833 168.612 12.7724C168.82 12.9529 168.924 13.1721 168.924 13.4299C168.924 13.6018 168.872 13.7651 168.768 13.9198C168.664 14.0659 168.512 14.139 168.313 14.139C168.174 14.139 168.057 14.1218 167.962 14.0874C167.875 14.0445 167.797 13.9929 167.728 13.9327C167.659 13.8726 167.576 13.8167 167.481 13.7651C167.394 13.7136 167.26 13.6749 167.078 13.6491C166.904 13.6147 166.774 13.5975 166.688 13.5975C166.246 13.5975 165.869 13.6921 165.556 13.8812C165.253 14.0702 165.019 14.3281 164.854 14.6547C164.69 14.9727 164.607 15.3423 164.607 15.7634C164.607 16.176 164.69 16.5455 164.854 16.8721C165.028 17.1901 165.262 17.4437 165.556 17.6328C165.86 17.8219 166.207 17.9164 166.597 17.9164C166.813 17.9164 167 17.9035 167.156 17.8777C167.312 17.8519 167.442 17.8133 167.546 17.7617C167.667 17.6929 167.776 17.6199 167.871 17.5425C167.966 17.4652 168.109 17.4265 168.3 17.4265C168.525 17.4265 168.699 17.4996 168.82 17.6457C168.941 17.7832 169.002 17.9551 169.002 18.1614C169.002 18.3762 168.881 18.5739 168.638 18.7544C168.395 18.9263 168.075 19.0681 167.676 19.1798C167.286 19.283 166.861 19.3345 166.402 19.3345C165.717 19.3345 165.123 19.1798 164.62 18.8704C164.117 18.5524 163.727 18.1227 163.45 17.5812C163.181 17.0397 163.047 16.4338 163.047 15.7634C163.047 15.0586 163.19 14.4398 163.476 13.9069C163.771 13.3655 164.174 12.9443 164.685 12.6435C165.205 12.3341 165.799 12.1794 166.467 12.1794ZM173.781 12.1794C174.405 12.1794 174.878 12.3126 175.198 12.579C175.528 12.8455 175.753 13.2022 175.874 13.6491C175.996 14.0874 176.057 14.5773 176.057 15.1188V18.4192C176.057 18.6427 175.983 18.8317 175.835 18.9865C175.688 19.1326 175.502 19.2056 175.276 19.2056C175.051 19.2056 174.865 19.1326 174.717 18.9865C174.57 18.8317 174.496 18.6427 174.496 18.4192V15.1188C174.496 14.8352 174.462 14.5816 174.392 14.3582C174.323 14.1261 174.197 13.9413 174.015 13.8038C173.833 13.6663 173.573 13.5975 173.235 13.5975C172.905 13.5975 172.624 13.6663 172.39 13.8038C172.156 13.9413 171.978 14.1261 171.857 14.3582C171.744 14.5816 171.688 14.8352 171.688 15.1188V18.4192C171.688 18.6427 171.614 18.8317 171.467 18.9865C171.319 19.1326 171.133 19.2056 170.907 19.2056C170.682 19.2056 170.496 19.1326 170.348 18.9865C170.201 18.8317 170.127 18.6427 170.127 18.4192V10.4518C170.127 10.2284 170.201 10.0436 170.348 9.89748C170.496 9.74277 170.682 9.66542 170.907 9.66542C171.133 9.66542 171.319 9.74277 171.467 9.89748C171.614 10.0436 171.688 10.2284 171.688 10.4518V13.6491L171.493 13.6104C171.571 13.4643 171.679 13.3096 171.818 13.1463C171.956 12.9744 172.125 12.8154 172.325 12.6693C172.524 12.5232 172.745 12.4071 172.988 12.3212C173.231 12.2267 173.495 12.1794 173.781 12.1794Z" fill="white"/>
</svg>
