<svg width="176" height="29" viewBox="0 0 176 29" fill="none" xmlns="http://www.w3.org/2000/svg">
<path d="M4.5003 15.17C4.88763 15.17 5.2283 15.1187 5.5223 15.016C5.82097 14.9133 6.07063 14.771 6.2713 14.589C6.47663 14.4023 6.63063 14.1807 6.7333 13.924C6.83597 13.6673 6.8873 13.385 6.8873 13.077C6.8873 12.4377 6.68897 11.9383 6.2923 11.579C5.9003 11.2197 5.30297 11.04 4.5003 11.04H2.8903V15.17H4.5003ZM4.5003 9.969C5.13497 9.969 5.68563 10.0437 6.1523 10.193C6.62363 10.3377 7.0133 10.5453 7.3213 10.816C7.6293 11.0867 7.85797 11.4133 8.0073 11.796C8.1613 12.1787 8.2383 12.6057 8.2383 13.077C8.2383 13.5437 8.15663 13.9707 7.9933 14.358C7.82997 14.7453 7.58963 15.079 7.2723 15.359C6.95963 15.639 6.56997 15.8583 6.1033 16.017C5.6413 16.171 5.10697 16.248 4.5003 16.248H2.8903V20H1.5393V9.969H4.5003ZM12.2734 12.797C12.7914 12.797 13.258 12.8833 13.6734 13.056C14.0887 13.2287 14.4434 13.4737 14.7374 13.791C15.0314 14.1083 15.2554 14.4933 15.4094 14.946C15.568 15.394 15.6474 15.8957 15.6474 16.451C15.6474 17.011 15.568 17.515 15.4094 17.963C15.2554 18.411 15.0314 18.7937 14.7374 19.111C14.4434 19.4283 14.0887 19.6733 13.6734 19.846C13.258 20.014 12.7914 20.098 12.2734 20.098C11.7507 20.098 11.2794 20.014 10.8594 19.846C10.444 19.6733 10.0894 19.4283 9.79536 19.111C9.50136 18.7937 9.27503 18.411 9.11636 17.963C8.96236 17.515 8.88536 17.011 8.88536 16.451C8.88536 15.8957 8.96236 15.394 9.11636 14.946C9.27503 14.4933 9.50136 14.1083 9.79536 13.791C10.0894 13.4737 10.444 13.2287 10.8594 13.056C11.2794 12.8833 11.7507 12.797 12.2734 12.797ZM12.2734 19.125C12.9734 19.125 13.496 18.8917 13.8414 18.425C14.1867 17.9537 14.3594 17.298 14.3594 16.458C14.3594 15.6133 14.1867 14.9553 13.8414 14.484C13.496 14.0127 12.9734 13.777 12.2734 13.777C11.9187 13.777 11.6084 13.8377 11.3424 13.959C11.081 14.0803 10.8617 14.2553 10.6844 14.484C10.5117 14.7127 10.381 14.995 10.2924 15.331C10.2084 15.6623 10.1664 16.038 10.1664 16.458C10.1664 17.298 10.339 17.9537 10.6844 18.425C11.0344 18.8917 11.564 19.125 12.2734 19.125ZM26.8973 12.909L24.6013 20H23.6143C23.493 20 23.409 19.9207 23.3623 19.762L21.7943 14.953C21.757 14.8457 21.7267 14.7383 21.7033 14.631C21.68 14.519 21.6567 14.4093 21.6333 14.302C21.61 14.4093 21.5867 14.519 21.5633 14.631C21.54 14.7383 21.5097 14.848 21.4723 14.96L19.8763 19.762C19.8343 19.9207 19.741 20 19.5963 20H18.6583L16.3623 12.909H17.3423C17.4403 12.909 17.522 12.9347 17.5873 12.986C17.6573 13.0373 17.704 13.098 17.7273 13.168L19.0853 17.732C19.1647 18.068 19.2277 18.3853 19.2743 18.684C19.3163 18.53 19.3583 18.3737 19.4003 18.215C19.447 18.0563 19.496 17.8953 19.5473 17.732L21.0453 13.14C21.0687 13.07 21.1083 13.0117 21.1643 12.965C21.225 12.9183 21.2973 12.895 21.3813 12.895H21.9273C22.0207 12.895 22.0977 12.9183 22.1583 12.965C22.219 13.0117 22.261 13.07 22.2843 13.14L23.7473 17.732C23.7987 17.8953 23.8453 18.0563 23.8873 18.215C23.9293 18.3737 23.969 18.53 24.0063 18.684C24.0297 18.53 24.0577 18.376 24.0903 18.222C24.1277 18.0633 24.1673 17.9 24.2093 17.732L25.5953 13.168C25.6187 13.0933 25.663 13.0327 25.7283 12.986C25.7937 12.9347 25.8707 12.909 25.9593 12.909H26.8973ZM32.7608 15.681C32.7608 15.3917 32.7188 15.128 32.6348 14.89C32.5555 14.6473 32.4365 14.4397 32.2778 14.267C32.1238 14.0897 31.9348 13.9543 31.7108 13.861C31.4868 13.763 31.2325 13.714 30.9478 13.714C30.3505 13.714 29.8768 13.889 29.5268 14.239C29.1815 14.5843 28.9668 15.065 28.8828 15.681H32.7608ZM33.7688 19.006C33.6148 19.1927 33.4305 19.356 33.2158 19.496C33.0012 19.6313 32.7702 19.7433 32.5228 19.832C32.2802 19.9207 32.0282 19.986 31.7668 20.028C31.5055 20.0747 31.2465 20.098 30.9898 20.098C30.4998 20.098 30.0472 20.0163 29.6318 19.853C29.2212 19.685 28.8642 19.4423 28.5608 19.125C28.2622 18.803 28.0288 18.4063 27.8608 17.935C27.6928 17.4637 27.6088 16.9223 27.6088 16.311C27.6088 15.8163 27.6835 15.3543 27.8328 14.925C27.9868 14.4957 28.2062 14.1247 28.4908 13.812C28.7755 13.4947 29.1232 13.2473 29.5338 13.07C29.9445 12.888 30.4065 12.797 30.9198 12.797C31.3445 12.797 31.7365 12.8693 32.0958 13.014C32.4598 13.154 32.7725 13.3593 33.0338 13.63C33.2998 13.896 33.5075 14.2273 33.6568 14.624C33.8062 15.016 33.8808 15.464 33.8808 15.968C33.8808 16.164 33.8598 16.2947 33.8178 16.36C33.7758 16.4253 33.6965 16.458 33.5798 16.458H28.8408C28.8548 16.906 28.9155 17.2957 29.0228 17.627C29.1348 17.9583 29.2888 18.236 29.4848 18.46C29.6808 18.6793 29.9142 18.845 30.1848 18.957C30.4555 19.0643 30.7588 19.118 31.0948 19.118C31.4075 19.118 31.6758 19.083 31.8998 19.013C32.1285 18.9383 32.3245 18.859 32.4878 18.775C32.6512 18.691 32.7865 18.614 32.8938 18.544C33.0058 18.4693 33.1015 18.432 33.1808 18.432C33.2835 18.432 33.3628 18.4717 33.4188 18.551L33.7688 19.006ZM36.5943 14.33C36.8183 13.8447 37.0936 13.4667 37.4203 13.196C37.747 12.9207 38.146 12.783 38.6173 12.783C38.7667 12.783 38.909 12.7993 39.0443 12.832C39.1843 12.8647 39.308 12.916 39.4153 12.986L39.3243 13.917C39.2963 14.0337 39.2263 14.092 39.1143 14.092C39.049 14.092 38.9533 14.078 38.8273 14.05C38.7013 14.022 38.559 14.008 38.4003 14.008C38.1763 14.008 37.9756 14.0407 37.7983 14.106C37.6256 14.1713 37.4693 14.2693 37.3293 14.4C37.194 14.526 37.0703 14.6847 36.9583 14.876C36.851 15.0627 36.753 15.2773 36.6643 15.52V20H35.4113V12.909H36.1253C36.2606 12.909 36.354 12.9347 36.4053 12.986C36.4566 13.0373 36.4916 13.126 36.5103 13.252L36.5943 14.33ZM44.9698 15.681C44.9698 15.3917 44.9278 15.128 44.8438 14.89C44.7645 14.6473 44.6455 14.4397 44.4868 14.267C44.3328 14.0897 44.1438 13.9543 43.9198 13.861C43.6958 13.763 43.4415 13.714 43.1568 13.714C42.5595 13.714 42.0858 13.889 41.7358 14.239C41.3905 14.5843 41.1758 15.065 41.0918 15.681H44.9698ZM45.9778 19.006C45.8238 19.1927 45.6395 19.356 45.4248 19.496C45.2102 19.6313 44.9792 19.7433 44.7318 19.832C44.4891 19.9207 44.2372 19.986 43.9758 20.028C43.7145 20.0747 43.4555 20.098 43.1988 20.098C42.7088 20.098 42.2561 20.0163 41.8408 19.853C41.4301 19.685 41.0731 19.4423 40.7698 19.125C40.4711 18.803 40.2378 18.4063 40.0698 17.935C39.9018 17.4637 39.8178 16.9223 39.8178 16.311C39.8178 15.8163 39.8925 15.3543 40.0418 14.925C40.1958 14.4957 40.4151 14.1247 40.6998 13.812C40.9845 13.4947 41.3321 13.2473 41.7428 13.07C42.1535 12.888 42.6155 12.797 43.1288 12.797C43.5535 12.797 43.9455 12.8693 44.3048 13.014C44.6688 13.154 44.9815 13.3593 45.2428 13.63C45.5088 13.896 45.7165 14.2273 45.8658 14.624C46.0151 15.016 46.0898 15.464 46.0898 15.968C46.0898 16.164 46.0688 16.2947 46.0268 16.36C45.9848 16.4253 45.9055 16.458 45.7888 16.458H41.0498C41.0638 16.906 41.1245 17.2957 41.2318 17.627C41.3438 17.9583 41.4978 18.236 41.6938 18.46C41.8898 18.6793 42.1231 18.845 42.3938 18.957C42.6645 19.0643 42.9678 19.118 43.3038 19.118C43.6165 19.118 43.8848 19.083 44.1088 19.013C44.3375 18.9383 44.5335 18.859 44.6968 18.775C44.8602 18.691 44.9955 18.614 45.1028 18.544C45.2148 18.4693 45.3105 18.432 45.3898 18.432C45.4925 18.432 45.5718 18.4717 45.6278 18.551L45.9778 19.006ZM52.2403 14.596C52.007 14.2833 51.755 14.0663 51.4843 13.945C51.2136 13.819 50.9103 13.756 50.5743 13.756C49.9163 13.756 49.41 13.9917 49.0553 14.463C48.7006 14.9343 48.5233 15.6063 48.5233 16.479C48.5233 16.941 48.563 17.3377 48.6423 17.669C48.7216 17.9957 48.8383 18.2663 48.9923 18.481C49.1463 18.691 49.3353 18.845 49.5593 18.943C49.7833 19.041 50.0376 19.09 50.3223 19.09C50.733 19.09 51.09 18.9967 51.3933 18.81C51.7013 18.6233 51.9836 18.3597 52.2403 18.019V14.596ZM53.4863 9.689V20H52.7443C52.567 20 52.455 19.9137 52.4083 19.741L52.2963 18.88C51.993 19.244 51.6476 19.538 51.2603 19.762C50.873 19.986 50.425 20.098 49.9163 20.098C49.5103 20.098 49.1416 20.021 48.8103 19.867C48.479 19.7083 48.1966 19.4773 47.9633 19.174C47.73 18.8707 47.5503 18.4927 47.4243 18.04C47.2983 17.5873 47.2353 17.067 47.2353 16.479C47.2353 15.9563 47.3053 15.471 47.4453 15.023C47.5853 14.5703 47.786 14.1783 48.0473 13.847C48.3086 13.5157 48.6283 13.2567 49.0063 13.07C49.389 12.8787 49.8183 12.783 50.2943 12.783C50.7283 12.783 51.0993 12.8577 51.4073 13.007C51.72 13.1517 51.9976 13.3547 52.2403 13.616V9.689H53.4863ZM60.2893 18.292C60.518 18.6 60.7676 18.817 61.0383 18.943C61.3136 19.069 61.6147 19.132 61.9413 19.132C62.6087 19.132 63.1197 18.8963 63.4743 18.425C63.829 17.9537 64.0063 17.2513 64.0063 16.318C64.0063 15.45 63.8476 14.813 63.5303 14.407C63.2176 13.9963 62.7696 13.791 62.1863 13.791C61.7803 13.791 61.4256 13.8843 61.1223 14.071C60.8236 14.2577 60.546 14.5213 60.2893 14.862V18.292ZM60.2893 13.931C60.588 13.5857 60.924 13.3103 61.2973 13.105C61.6753 12.8997 62.1093 12.797 62.5993 12.797C63.0146 12.797 63.388 12.8763 63.7193 13.035C64.0553 13.1937 64.34 13.4247 64.5733 13.728C64.8067 14.0267 64.984 14.3907 65.1053 14.82C65.2313 15.2493 65.2943 15.7323 65.2943 16.269C65.2943 16.843 65.2243 17.3657 65.0843 17.837C64.9443 18.3083 64.7413 18.712 64.4753 19.048C64.214 19.3793 63.8943 19.6383 63.5163 19.825C63.1383 20.007 62.7137 20.098 62.2423 20.098C61.7756 20.098 61.3813 20.0117 61.0593 19.839C60.742 19.6617 60.4643 19.412 60.2263 19.09L60.1633 19.734C60.126 19.9113 60.0186 20 59.8413 20H59.0363V9.689H60.2893V13.931ZM72.8106 12.909L68.8556 22.093C68.8136 22.1863 68.7599 22.261 68.6946 22.317C68.6339 22.373 68.5382 22.401 68.4076 22.401H67.4836L68.7786 19.587L65.8526 12.909H66.9306C67.0379 12.909 67.1219 12.937 67.1826 12.993C67.2479 13.0443 67.2922 13.1027 67.3156 13.168L69.2126 17.634C69.2872 17.83 69.3502 18.0353 69.4016 18.25C69.4669 18.0307 69.5369 17.823 69.6116 17.627L71.4526 13.168C71.4806 13.0933 71.5272 13.0327 71.5926 12.986C71.6626 12.9347 71.7396 12.909 71.8236 12.909H72.8106Z" fill="#94A3B8"/>
<path fill-rule="evenodd" clip-rule="evenodd" d="M95.8684 21.165C95.8215 21.2343 95.7744 21.3015 95.7271 21.3662C96.4316 21.7441 97.2767 21.9834 98.0769 22.1272C98.8769 22.2711 99.6172 22.3168 100.101 22.3152C103.66 14.3185 99.5829 8.59517 97.0414 6.67043C95.3545 6.87266 94.1094 7.29522 92.7678 8.25829C93.7521 8.99512 94.6858 9.90469 95.456 10.9395C96.5338 12.3877 97.2983 14.0905 97.4226 15.9155C97.538 17.6123 97.0989 19.3992 95.8684 21.165ZM92.0942 15.3706C91.8826 13.8954 90.7738 12.6679 89.3067 11.7948C86.8766 15.5319 87.9283 19.0882 89.1705 20.9318C89.2215 21.005 89.274 21.0784 89.328 21.1516C90.3388 20.3902 92.0571 18.4733 92.0571 15.9229C92.0571 15.735 92.0698 15.5509 92.0942 15.3706Z" fill="#94A3B8"/>
<path fill-rule="evenodd" clip-rule="evenodd" d="M84.6535 10.2735L84.8421 9.95175C84.9137 9.84255 84.9933 9.72408 85.0799 9.59866L85.0804 9.59793L85.0809 9.5972C85.1746 9.45907 85.2704 9.32413 85.3677 9.19235L85.3682 9.19164L85.3688 9.19092C86.0013 8.32095 86.8524 7.29396 87.6642 6.6721C88.6871 6.64018 90.0034 7.05834 91.3358 7.84084C92.6938 8.6384 94.0435 9.79999 95.0817 11.1949C96.12 12.5899 96.84 14.2087 96.9568 15.9232C97.0693 17.5762 96.6224 19.3348 95.3308 21.0894C94.32 20.328 92.6017 18.411 92.6017 15.8606C92.6017 13.8439 91.1447 12.2642 89.3507 11.2537L89.1627 11.1479L89.0415 11.3262C86.2252 15.4699 87.5268 19.454 88.9317 21.3805C88.2272 21.7583 87.3821 21.9976 86.5819 22.1415C85.7819 22.2853 85.0415 22.331 84.5581 22.3295C82.2178 17.082 83.0028 13.0888 84.6535 10.2735Z" fill="#94A3B8"/>
<path d="M107.648 10.1682C107.77 10.1682 107.895 10.2026 108.025 10.2713C108.164 10.3315 108.268 10.4132 108.337 10.5163L111.497 15.338L110.847 15.3122L114.085 10.5163C114.249 10.2842 114.462 10.1682 114.722 10.1682C114.93 10.1682 115.116 10.2413 115.281 10.3874C115.446 10.5335 115.528 10.7226 115.528 10.9546V18.4192C115.528 18.6427 115.454 18.8317 115.307 18.9864C115.16 19.1326 114.964 19.2056 114.722 19.2056C114.479 19.2056 114.28 19.1326 114.124 18.9864C113.976 18.8317 113.903 18.6427 113.903 18.4192V12.347L114.41 12.463L111.757 16.4725C111.679 16.567 111.579 16.6487 111.458 16.7174C111.345 16.7862 111.228 16.8163 111.107 16.8077C110.994 16.8163 110.877 16.7862 110.756 16.7174C110.643 16.6487 110.548 16.567 110.47 16.4725L107.986 12.579L108.324 11.8957V18.4192C108.324 18.6427 108.255 18.8317 108.116 18.9864C107.978 19.1326 107.796 19.2056 107.57 19.2056C107.354 19.2056 107.176 19.1326 107.037 18.9864C106.898 18.8317 106.829 18.6427 106.829 18.4192V10.9546C106.829 10.7398 106.907 10.555 107.063 10.4003C107.228 10.2456 107.423 10.1682 107.648 10.1682ZM123.048 12.1794C123.273 12.1794 123.46 12.2524 123.607 12.3985C123.754 12.5447 123.828 12.7337 123.828 12.9658V18.4192C123.828 18.6427 123.754 18.8317 123.607 18.9864C123.46 19.1326 123.273 19.2056 123.048 19.2056C122.822 19.2056 122.636 19.1326 122.489 18.9864C122.341 18.8317 122.268 18.6427 122.268 18.4192V17.7875L122.554 17.9035C122.554 18.0152 122.493 18.1527 122.372 18.316C122.25 18.4707 122.086 18.6255 121.878 18.7802C121.67 18.9349 121.423 19.0681 121.136 19.1798C120.859 19.283 120.556 19.3345 120.226 19.3345C119.628 19.3345 119.086 19.1841 118.601 18.8833C118.115 18.5739 117.73 18.1527 117.444 17.6199C117.166 17.0784 117.028 16.4596 117.028 15.7634C117.028 15.0586 117.166 14.4398 117.444 13.9069C117.73 13.3655 118.111 12.9443 118.588 12.6435C119.065 12.3341 119.594 12.1794 120.174 12.1794C120.547 12.1794 120.889 12.2352 121.201 12.347C121.514 12.4587 121.782 12.6005 122.008 12.7724C122.242 12.9443 122.419 13.1205 122.541 13.301C122.671 13.4729 122.736 13.619 122.736 13.7393L122.268 13.9069V12.9658C122.268 12.7423 122.341 12.5575 122.489 12.4114C122.636 12.2567 122.822 12.1794 123.048 12.1794ZM120.421 17.9164C120.803 17.9164 121.136 17.8218 121.423 17.6328C121.709 17.4437 121.93 17.1858 122.086 16.8592C122.25 16.5326 122.333 16.1674 122.333 15.7634C122.333 15.3508 122.25 14.9813 122.086 14.6547C121.93 14.3281 121.709 14.0702 121.423 13.8811C121.136 13.6921 120.803 13.5975 120.421 13.5975C120.049 13.5975 119.719 13.6921 119.433 13.8811C119.147 14.0702 118.922 14.3281 118.757 14.6547C118.601 14.9813 118.523 15.3508 118.523 15.7634C118.523 16.1674 118.601 16.5326 118.757 16.8592C118.922 17.1858 119.147 17.4437 119.433 17.6328C119.719 17.8218 120.049 17.9164 120.421 17.9164ZM129.236 12.1794C129.878 12.1794 130.363 12.3126 130.693 12.579C131.031 12.8455 131.26 13.2022 131.382 13.6491C131.512 14.0874 131.577 14.5773 131.577 15.1188V18.4192C131.577 18.6427 131.503 18.8317 131.356 18.9864C131.208 19.1326 131.022 19.2056 130.797 19.2056C130.571 19.2056 130.385 19.1326 130.237 18.9864C130.09 18.8317 130.016 18.6427 130.016 18.4192V15.1188C130.016 14.8352 129.977 14.5816 129.899 14.3582C129.83 14.1261 129.7 13.9413 129.509 13.8038C129.319 13.6663 129.046 13.5975 128.69 13.5975C128.343 13.5975 128.049 13.6663 127.806 13.8038C127.572 13.9413 127.39 14.1261 127.26 14.3582C127.139 14.5816 127.078 14.8352 127.078 15.1188V18.4192C127.078 18.6427 127.004 18.8317 126.857 18.9864C126.709 19.1326 126.523 19.2056 126.298 19.2056C126.072 19.2056 125.886 19.1326 125.739 18.9864C125.591 18.8317 125.517 18.6427 125.517 18.4192V13.0947C125.517 12.8713 125.591 12.6865 125.739 12.5404C125.886 12.3857 126.072 12.3083 126.298 12.3083C126.523 12.3083 126.709 12.3857 126.857 12.5404C127.004 12.6865 127.078 12.8713 127.078 13.0947V13.6491L126.883 13.6104C126.961 13.4643 127.074 13.3096 127.221 13.1463C127.368 12.9744 127.542 12.8154 127.741 12.6693C127.94 12.5232 128.166 12.4071 128.417 12.3212C128.668 12.2266 128.942 12.1794 129.236 12.1794ZM138.958 9.66541C139.184 9.66541 139.37 9.73846 139.518 9.88457C139.665 10.0307 139.739 10.2198 139.739 10.4518V18.4192C139.739 18.6427 139.665 18.8317 139.518 18.9864C139.37 19.1326 139.184 19.2056 138.958 19.2056C138.733 19.2056 138.547 19.1326 138.399 18.9864C138.252 18.8317 138.178 18.6427 138.178 18.4192V17.7875L138.464 17.9035C138.464 18.0152 138.404 18.1527 138.282 18.316C138.161 18.4707 137.996 18.6255 137.788 18.7802C137.58 18.9349 137.333 19.0681 137.047 19.1798C136.77 19.283 136.466 19.3345 136.137 19.3345C135.539 19.3345 134.997 19.1841 134.512 18.8833C134.026 18.5739 133.64 18.1527 133.354 17.6199C133.077 17.0784 132.938 16.4596 132.938 15.7634C132.938 15.0586 133.077 14.4398 133.354 13.9069C133.64 13.3655 134.022 12.9443 134.499 12.6435C134.975 12.3341 135.504 12.1794 136.085 12.1794C136.458 12.1794 136.8 12.2352 137.112 12.347C137.424 12.4587 137.693 12.6005 137.918 12.7724C138.152 12.9443 138.33 13.1205 138.451 13.301C138.581 13.4729 138.646 13.619 138.646 13.7393L138.178 13.9069V10.4518C138.178 10.2284 138.252 10.0436 138.399 9.89746C138.547 9.74276 138.733 9.66541 138.958 9.66541ZM136.332 17.9164C136.713 17.9164 137.047 17.8218 137.333 17.6328C137.619 17.4437 137.84 17.1858 137.996 16.8592C138.161 16.5326 138.243 16.1674 138.243 15.7634C138.243 15.3508 138.161 14.9813 137.996 14.6547C137.84 14.3281 137.619 14.0702 137.333 13.8811C137.047 13.6921 136.713 13.5975 136.332 13.5975C135.959 13.5975 135.63 13.6921 135.344 13.8811C135.058 14.0702 134.832 14.3281 134.668 14.6547C134.512 14.9813 134.434 15.3508 134.434 15.7634C134.434 16.1674 134.512 16.5326 134.668 16.8592C134.832 17.1858 135.058 17.4437 135.344 17.6328C135.63 17.8218 135.959 17.9164 136.332 17.9164ZM147.123 12.1794C147.349 12.1794 147.535 12.2524 147.682 12.3985C147.83 12.5447 147.903 12.7337 147.903 12.9658V18.4192C147.903 18.6427 147.83 18.8317 147.682 18.9864C147.535 19.1326 147.349 19.2056 147.123 19.2056C146.898 19.2056 146.711 19.1326 146.564 18.9864C146.417 18.8317 146.343 18.6427 146.343 18.4192V17.7875L146.629 17.9035C146.629 18.0152 146.568 18.1527 146.447 18.316C146.326 18.4707 146.161 18.6255 145.953 18.7802C145.745 18.9349 145.498 19.0681 145.212 19.1798C144.934 19.283 144.631 19.3345 144.302 19.3345C143.704 19.3345 143.162 19.1841 142.676 18.8833C142.191 18.5739 141.805 18.1527 141.519 17.6199C141.242 17.0784 141.103 16.4596 141.103 15.7634C141.103 15.0586 141.242 14.4398 141.519 13.9069C141.805 13.3655 142.187 12.9443 142.663 12.6435C143.14 12.3341 143.669 12.1794 144.25 12.1794C144.622 12.1794 144.965 12.2352 145.277 12.347C145.589 12.4587 145.858 12.6005 146.083 12.7724C146.317 12.9443 146.495 13.1205 146.616 13.301C146.746 13.4729 146.811 13.619 146.811 13.7393L146.343 13.9069V12.9658C146.343 12.7423 146.417 12.5575 146.564 12.4114C146.711 12.2567 146.898 12.1794 147.123 12.1794ZM144.497 17.9164C144.878 17.9164 145.212 17.8218 145.498 17.6328C145.784 17.4437 146.005 17.1858 146.161 16.8592C146.326 16.5326 146.408 16.1674 146.408 15.7634C146.408 15.3508 146.326 14.9813 146.161 14.6547C146.005 14.3281 145.784 14.0702 145.498 13.8811C145.212 13.6921 144.878 13.5975 144.497 13.5975C144.124 13.5975 143.795 13.6921 143.509 13.8811C143.222 14.0702 142.997 14.3281 142.832 14.6547C142.676 14.9813 142.598 15.3508 142.598 15.7634C142.598 16.1674 142.676 16.5326 142.832 16.8592C142.997 17.1858 143.222 17.4437 143.509 17.6328C143.795 17.8218 144.124 17.9164 144.497 17.9164ZM149.671 12.4372H152.753C152.961 12.4372 153.134 12.506 153.273 12.6435C153.411 12.781 153.481 12.9529 153.481 13.1592C153.481 13.3569 153.411 13.5245 153.273 13.662C153.134 13.7909 152.961 13.8554 152.753 13.8554H149.671C149.463 13.8554 149.289 13.7866 149.151 13.6491C149.012 13.5116 148.943 13.3397 148.943 13.1334C148.943 12.9357 149.012 12.7724 149.151 12.6435C149.289 12.506 149.463 12.4372 149.671 12.4372ZM151.062 10.8257C151.288 10.8257 151.47 10.9031 151.608 11.0578C151.756 11.2039 151.829 11.3887 151.829 11.6121V17.3491C151.829 17.4695 151.851 17.5683 151.894 17.6457C151.946 17.723 152.011 17.7789 152.089 17.8132C152.176 17.8476 152.267 17.8648 152.362 17.8648C152.466 17.8648 152.562 17.8476 152.649 17.8132C152.735 17.7703 152.835 17.7488 152.948 17.7488C153.069 17.7488 153.177 17.8047 153.273 17.9164C153.377 18.0281 153.429 18.1828 153.429 18.3805C153.429 18.6211 153.294 18.8188 153.026 18.9735C152.766 19.1282 152.484 19.2056 152.18 19.2056C151.998 19.2056 151.795 19.1927 151.569 19.1669C151.353 19.1326 151.145 19.0595 150.945 18.9478C150.754 18.8274 150.594 18.6469 150.464 18.4063C150.334 18.1656 150.269 17.8347 150.269 17.4136V11.6121C150.269 11.3887 150.343 11.2039 150.49 11.0578C150.646 10.9031 150.837 10.8257 151.062 10.8257ZM158.127 19.3345C157.39 19.3345 156.748 19.1841 156.202 18.8833C155.665 18.5739 155.249 18.157 154.954 17.6328C154.668 17.1085 154.525 16.5154 154.525 15.8536C154.525 15.0801 154.681 14.4226 154.993 13.8811C155.314 13.3311 155.73 12.9099 156.241 12.6177C156.753 12.3255 157.294 12.1794 157.867 12.1794C158.309 12.1794 158.725 12.2696 159.115 12.4501C159.513 12.6306 159.865 12.8799 160.168 13.1979C160.471 13.5073 160.71 13.8682 160.883 14.2808C161.065 14.6933 161.156 15.1317 161.156 15.5958C161.147 15.8021 161.065 15.9697 160.909 16.0986C160.753 16.2275 160.571 16.292 160.363 16.292H155.396L155.006 15.0028H159.778L159.492 15.2606V14.9125C159.474 14.6633 159.383 14.4398 159.219 14.2421C159.063 14.0444 158.863 13.8897 158.621 13.778C158.387 13.6577 158.135 13.5975 157.867 13.5975C157.606 13.5975 157.364 13.6319 157.138 13.7007C156.913 13.7694 156.718 13.8854 156.553 14.0487C156.388 14.212 156.258 14.4312 156.163 14.7062C156.068 14.9813 156.02 15.3294 156.02 15.7505C156.02 16.2146 156.115 16.61 156.306 16.9366C156.505 17.2546 156.757 17.4995 157.06 17.6714C157.372 17.8347 157.702 17.9164 158.049 17.9164C158.369 17.9164 158.625 17.8906 158.816 17.839C159.006 17.7875 159.158 17.7273 159.271 17.6585C159.392 17.5812 159.5 17.5167 159.596 17.4652C159.752 17.3878 159.899 17.3491 160.038 17.3491C160.229 17.3491 160.385 17.4136 160.506 17.5425C160.636 17.6714 160.701 17.8218 160.701 17.9937C160.701 18.2258 160.58 18.4364 160.337 18.6255C160.112 18.8145 159.795 18.9821 159.388 19.1282C158.98 19.2657 158.56 19.3345 158.127 19.3345ZM165.614 12.1794C166.108 12.1794 166.537 12.2309 166.901 12.3341C167.274 12.4372 167.56 12.5833 167.76 12.7724C167.968 12.9529 168.072 13.1721 168.072 13.4299C168.072 13.6018 168.02 13.7651 167.916 13.9198C167.812 14.0659 167.66 14.139 167.46 14.139C167.322 14.139 167.205 14.1218 167.109 14.0874C167.023 14.0444 166.945 13.9929 166.875 13.9327C166.806 13.8726 166.724 13.8167 166.628 13.7651C166.542 13.7135 166.407 13.6749 166.225 13.6491C166.052 13.6147 165.922 13.5975 165.835 13.5975C165.393 13.5975 165.016 13.6921 164.704 13.8811C164.4 14.0702 164.166 14.3281 164.002 14.6547C163.837 14.9727 163.755 15.3423 163.755 15.7634C163.755 16.1759 163.837 16.5455 164.002 16.8721C164.175 17.1901 164.409 17.4437 164.704 17.6328C165.007 17.8218 165.354 17.9164 165.744 17.9164C165.961 17.9164 166.147 17.9035 166.303 17.8777C166.459 17.8519 166.589 17.8132 166.693 17.7617C166.815 17.6929 166.923 17.6199 167.018 17.5425C167.114 17.4652 167.257 17.4265 167.447 17.4265C167.673 17.4265 167.846 17.4995 167.968 17.6457C168.089 17.7832 168.15 17.9551 168.15 18.1613C168.15 18.3762 168.028 18.5739 167.786 18.7544C167.543 18.9263 167.222 19.0681 166.823 19.1798C166.433 19.283 166.008 19.3345 165.549 19.3345C164.864 19.3345 164.27 19.1798 163.768 18.8704C163.265 18.5524 162.875 18.1227 162.597 17.5812C162.329 17.0397 162.194 16.4338 162.194 15.7634C162.194 15.0586 162.337 14.4398 162.623 13.9069C162.918 13.3655 163.321 12.9443 163.833 12.6435C164.353 12.3341 164.947 12.1794 165.614 12.1794ZM172.928 12.1794C173.553 12.1794 174.025 12.3126 174.346 12.579C174.675 12.8455 174.901 13.2022 175.022 13.6491C175.143 14.0874 175.204 14.5773 175.204 15.1188V18.4192C175.204 18.6427 175.13 18.8317 174.983 18.9864C174.836 19.1326 174.649 19.2056 174.424 19.2056C174.198 19.2056 174.012 19.1326 173.865 18.9864C173.717 18.8317 173.644 18.6427 173.644 18.4192V15.1188C173.644 14.8352 173.609 14.5816 173.54 14.3582C173.47 14.1261 173.345 13.9413 173.163 13.8038C172.981 13.6663 172.72 13.5975 172.382 13.5975C172.053 13.5975 171.771 13.6663 171.537 13.8038C171.303 13.9413 171.125 14.1261 171.004 14.3582C170.891 14.5816 170.835 14.8352 170.835 15.1188V18.4192C170.835 18.6427 170.761 18.8317 170.614 18.9864C170.467 19.1326 170.28 19.2056 170.055 19.2056C169.829 19.2056 169.643 19.1326 169.496 18.9864C169.348 18.8317 169.275 18.6427 169.275 18.4192V10.4518C169.275 10.2284 169.348 10.0436 169.496 9.89746C169.643 9.74276 169.829 9.66541 170.055 9.66541C170.28 9.66541 170.467 9.74276 170.614 9.89746C170.761 10.0436 170.835 10.2284 170.835 10.4518V13.6491L170.64 13.6104C170.718 13.4643 170.826 13.3096 170.965 13.1463C171.104 12.9744 171.273 12.8154 171.472 12.6693C171.672 12.5232 171.893 12.4071 172.135 12.3212C172.378 12.2266 172.642 12.1794 172.928 12.1794Z" fill="#94A3B8"/>
</svg>
