<svg width="16" height="17" viewBox="0 0 16 17" fill="none" xmlns="http://www.w3.org/2000/svg">
<path d="M5.75 8C5.33579 8 5 8.33579 5 8.75C5 9.16421 5.33579 9.5 5.75 9.5C6.16421 9.5 6.5 9.16421 6.5 8.75C6.5 8.33579 6.16421 8 5.75 8Z" fill="#94A3B8"/>
<path d="M5 10.75C5 10.3358 5.33579 10 5.75 10C6.16421 10 6.5 10.3358 6.5 10.75C6.5 11.1642 6.16421 11.5 5.75 11.5C5.33579 11.5 5 11.1642 5 10.75Z" fill="#94A3B8"/>
<path d="M10.25 8C9.83579 8 9.5 8.33579 9.5 8.75C9.5 9.16421 9.83579 9.5 10.25 9.5C10.6642 9.5 11 9.16421 11 8.75C11 8.33579 10.6642 8 10.25 8Z" fill="#94A3B8"/>
<path d="M7.25 8.75C7.25 8.33579 7.58579 8 8 8C8.41421 8 8.75 8.33579 8.75 8.75C8.75 9.16421 8.41421 9.5 8 9.5C7.58579 9.5 7.25 9.16421 7.25 8.75Z" fill="#94A3B8"/>
<path d="M8 10C7.58579 10 7.25 10.3358 7.25 10.75C7.25 11.1642 7.58579 11.5 8 11.5C8.41421 11.5 8.75 11.1642 8.75 10.75C8.75 10.3358 8.41421 10 8 10Z" fill="#94A3B8"/>
<path fill-rule="evenodd" clip-rule="evenodd" d="M4.75 1.5C4.33579 1.5 4 1.83579 4 2.25V3.5C2.89543 3.5 2 4.39543 2 5.5V12.5C2 13.6046 2.89543 14.5 4 14.5H12C13.1046 14.5 14 13.6046 14 12.5V5.5C14 4.39543 13.1046 3.5 12 3.5V2.25C12 1.83579 11.6642 1.5 11.25 1.5C10.8358 1.5 10.5 1.83579 10.5 2.25V3.5H5.5V2.25C5.5 1.83579 5.16421 1.5 4.75 1.5ZM3.5 7.5C3.5 6.94772 3.94772 6.5 4.5 6.5H11.5C12.0523 6.5 12.5 6.94772 12.5 7.5V12C12.5 12.5523 12.0523 13 11.5 13H4.5C3.94772 13 3.5 12.5523 3.5 12V7.5Z" fill="#94A3B8"/>
</svg>
