<svg width="14" height="13" viewBox="0 0 14 13" fill="none" xmlns="http://www.w3.org/2000/svg">
<path d="M11 10.9794C11.165 10.9931 11.3319 11 11.5004 11C12.1993 11 12.8703 10.8805 13.494 10.6608C13.4982 10.6078 13.5004 10.5541 13.5004 10.5C13.5004 9.39543 12.605 8.5 11.5004 8.5C11.082 8.5 10.6936 8.62849 10.3725 8.84815M11 10.9794C11 10.9863 11 10.9931 11 11C11 11.15 10.9917 11.2981 10.9757 11.4438C9.80448 12.1158 8.44711 12.5 7 12.5C5.55289 12.5 4.19551 12.1158 3.02434 11.4438C3.00826 11.2981 3 11.15 3 11C3 10.9932 3.00002 10.9863 3.00005 10.9795M11 10.9794C10.996 10.1951 10.7663 9.46408 10.3725 8.84815M10.3725 8.84815C9.66188 7.73679 8.41698 7 7 7C5.5832 7 4.33844 7.73661 3.62779 8.84774M3.62779 8.84774C3.30682 8.62833 2.91864 8.5 2.50049 8.5C1.39592 8.5 0.500488 9.39543 0.500488 10.5C0.500488 10.5541 0.50264 10.6078 0.506862 10.6608C1.13062 10.8805 1.8016 11 2.50049 11C2.66872 11 2.83533 10.9931 3.00005 10.9795M3.62779 8.84774C3.2338 9.46377 3.00399 10.1949 3.00005 10.9795M9 3C9 4.10457 8.10457 5 7 5C5.89543 5 5 4.10457 5 3C5 1.89543 5.89543 1 7 1C8.10457 1 9 1.89543 9 3ZM13 5C13 5.82843 12.3284 6.5 11.5 6.5C10.6716 6.5 10 5.82843 10 5C10 4.17157 10.6716 3.5 11.5 3.5C12.3284 3.5 13 4.17157 13 5ZM4 5C4 5.82843 3.32843 6.5 2.5 6.5C1.67157 6.5 1 5.82843 1 5C1 4.17157 1.67157 3.5 2.5 3.5C3.32843 3.5 4 4.17157 4 5Z" stroke="white" stroke-linecap="round" stroke-linejoin="round"/>
</svg>
