<svg width="16" height="17" viewBox="0 0 16 17" fill="none" xmlns="http://www.w3.org/2000/svg">
<path d="M12 12.9794C12.165 12.9931 12.3319 13 12.5004 13C13.1993 13 13.8703 12.8805 14.494 12.6608C14.4982 12.6078 14.5004 12.5541 14.5004 12.5C14.5004 11.3954 13.605 10.5 12.5004 10.5C12.082 10.5 11.6936 10.6285 11.3725 10.8482M12 12.9794C12 12.9863 12 12.9931 12 13C12 13.15 11.9917 13.2981 11.9757 13.4438C10.8045 14.1158 9.44711 14.5 8 14.5C6.55289 14.5 5.19551 14.1158 4.02434 13.4438C4.00826 13.2981 4 13.15 4 13C4 12.9932 4.00002 12.9863 4.00005 12.9795M12 12.9794C11.996 12.1951 11.7663 11.4641 11.3725 10.8482M11.3725 10.8482C10.6619 9.73679 9.41698 9 8 9C6.5832 9 5.33844 9.73661 4.62779 10.8477M4.62779 10.8477C4.30682 10.6283 3.91864 10.5 3.50049 10.5C2.39592 10.5 1.50049 11.3954 1.50049 12.5C1.50049 12.5541 1.50264 12.6078 1.50686 12.6608C2.13062 12.8805 2.8016 13 3.50049 13C3.66872 13 3.83533 12.9931 4.00005 12.9795M4.62779 10.8477C4.2338 11.4638 4.00399 12.1949 4.00005 12.9795M10 5C10 6.10457 9.10457 7 8 7C6.89543 7 6 6.10457 6 5C6 3.89543 6.89543 3 8 3C9.10457 3 10 3.89543 10 5ZM14 7C14 7.82843 13.3284 8.5 12.5 8.5C11.6716 8.5 11 7.82843 11 7C11 6.17157 11.6716 5.5 12.5 5.5C13.3284 5.5 14 6.17157 14 7ZM5 7C5 7.82843 4.32843 8.5 3.5 8.5C2.67157 8.5 2 7.82843 2 7C2 6.17157 2.67157 5.5 3.5 5.5C4.32843 5.5 5 6.17157 5 7Z" stroke="#94A3B8" stroke-width="1.3" stroke-linecap="round" stroke-linejoin="round"/>
</svg>
